<svg width="21" height="20" viewBox="0 0 21 20" fill="none" xmlns="http://www.w3.org/2000/svg">
<path d="M19.1696 0H5.83626C5.61525 0 5.40329 0.0877975 5.24701 0.244078C5.09073 0.400358 5.00293 0.61232 5.00293 0.833333V5H0.836263C0.615249 5 0.403288 5.0878 0.247008 5.24408C0.0907272 5.40036 0.00292969 5.61232 0.00292969 5.83333V19.1667C0.00292969 19.3877 0.0907272 19.5996 0.247008 19.7559C0.403288 19.9122 0.615249 20 0.836263 20H14.1696C14.3906 20 14.6026 19.9122 14.7589 19.7559C14.9151 19.5996 15.0029 19.3877 15.0029 19.1667V15H19.1696C19.3906 15 19.6026 14.9122 19.7589 14.7559C19.9151 14.5996 20.0029 14.3877 20.0029 14.1667V0.833333C20.0029 0.61232 19.9151 0.400358 19.7589 0.244078C19.6026 0.0877975 19.3906 0 19.1696 0ZM13.3363 18.3333H1.6696V6.66667H13.3363V18.3333ZM18.3363 13.3333H15.0029V5.83333C15.0029 5.61232 14.9151 5.40036 14.7589 5.24408C14.6026 5.0878 14.3906 5 14.1696 5H6.6696V1.66667H18.3363V13.3333Z" fill="white"/>
</svg>
