<svg width="154" height="150" viewBox="0 0 154 150" fill="none" xmlns="http://www.w3.org/2000/svg">
<circle opacity="0.1" cx="75.0028" cy="75" r="75" fill="#1C7B37"/>
<path d="M9.00281 29.7229V62.7836V65.145C9.00281 67.7534 11.1173 69.868 13.7258 69.868H44.4249L57.0391 81.5118C57.8858 82.2934 59.2359 81.5235 58.9945 80.3968L56.2323 67.5065H64.4974C67.1058 67.5065 69.2204 65.392 69.2204 62.7836V29.7229C69.2204 27.1145 67.1058 25 64.4974 25H13.7258C11.1173 25 9.00281 27.1145 9.00281 29.7229Z" fill="url(#paint0_linear_1_162)"/>
<path d="M153.22 54.7229V87.7836V90.145C153.22 92.7534 151.106 94.868 148.497 94.868H117.798L105.184 106.512C104.337 107.293 102.987 106.524 103.229 105.397L105.991 92.5065H97.7257C95.1173 92.5065 93.0028 90.392 93.0028 87.7836V54.7229C93.0028 52.1145 95.1173 50 97.7257 50H148.497C151.106 50 153.22 52.1145 153.22 54.7229Z" fill="url(#paint1_linear_1_162)"/>
<circle cx="109.503" cy="71.5" r="3.5" fill="#F8F8F8"/>
<circle cx="122.503" cy="71.5" r="3.5" fill="#F8F8F8"/>
<circle cx="135.503" cy="71.5" r="3.5" fill="#F8F8F8"/>
<path d="M45.0028 100.41V117.281V118.486C45.0028 119.817 46.0914 120.896 47.4342 120.896H63.2381L69.7319 126.838C70.1678 127.237 70.8628 126.844 70.7385 126.269L69.3165 119.691H73.5714C74.9142 119.691 76.0028 118.612 76.0028 117.281V100.41C76.0028 99.079 74.9142 98 73.5714 98H47.4342C46.0914 98 45.0028 99.079 45.0028 100.41Z" fill="#4BA63C" fill-opacity="0.51"/>
<circle cx="25.5028" cy="46.5" r="3.5" fill="#F8F8F8"/>
<circle cx="38.5028" cy="46.5" r="3.5" fill="#F8F8F8"/>
<circle cx="51.5028" cy="46.5" r="3.5" fill="#F8F8F8"/>
<circle opacity="0.7" cx="53.018" cy="109.333" r="2.01515" fill="#F8F8F8"/>
<circle opacity="0.7" cx="60.5027" cy="109.333" r="2.01515" fill="#F8F8F8"/>
<circle opacity="0.7" cx="67.9877" cy="109.333" r="2.01515" fill="#F8F8F8"/>
<defs>
<linearGradient id="paint0_linear_1_162" x1="39.1116" y1="25" x2="39.1116" y2="81.8297" gradientUnits="userSpaceOnUse">
<stop stop-color="#39C98C"/>
<stop offset="1" stop-color="#24693F"/>
</linearGradient>
<linearGradient id="paint1_linear_1_162" x1="123.112" y1="50" x2="123.112" y2="106.83" gradientUnits="userSpaceOnUse">
<stop stop-color="#43B16F" stop-opacity="0.5"/>
<stop offset="1" stop-color="#0A180D"/>
</linearGradient>
</defs>
</svg>
