<svg width="182" height="57" viewBox="0 0 182 57" fill="none" xmlns="http://www.w3.org/2000/svg">
<path d="M7.524 36.004H15.804V40H2.484V14.872H7.524V36.004ZM37.5474 29.596C37.5474 30.316 37.4994 30.964 37.4034 31.54H22.8234C22.9434 32.98 23.4474 34.108 24.3354 34.924C25.2234 35.74 26.3154 36.148 27.6114 36.148C29.4834 36.148 30.8154 35.344 31.6074 33.736H37.0434C36.4674 35.656 35.3634 37.24 33.7314 38.488C32.0994 39.712 30.0954 40.324 27.7194 40.324C25.7994 40.324 24.0714 39.904 22.5354 39.064C21.0234 38.2 19.8354 36.988 18.9714 35.428C18.1314 33.868 17.7114 32.068 17.7114 30.028C17.7114 27.964 18.1314 26.152 18.9714 24.592C19.8114 23.032 20.9874 21.832 22.4994 20.992C24.0114 20.152 25.7514 19.732 27.7194 19.732C29.6154 19.732 31.3074 20.14 32.7954 20.956C34.3074 21.772 35.4714 22.936 36.2874 24.448C37.1274 25.936 37.5474 27.652 37.5474 29.596ZM32.3274 28.156C32.3034 26.86 31.8354 25.828 30.9234 25.06C30.0114 24.268 28.8954 23.872 27.5754 23.872C26.3274 23.872 25.2714 24.256 24.4074 25.024C23.5674 25.768 23.0514 26.812 22.8594 28.156H32.3274ZM47.0942 24.196V33.844C47.0942 34.516 47.2502 35.008 47.5622 35.32C47.8982 35.608 48.4502 35.752 49.2182 35.752H51.5582V40H48.3902C44.1422 40 42.0182 37.936 42.0182 33.808V24.196H39.6422V20.056H42.0182V15.124H47.0942V20.056H51.5582V24.196H47.0942ZM62.8152 40.324C61.1832 40.324 59.7192 40.036 58.4232 39.46C57.1272 38.86 56.0952 38.056 55.3272 37.048C54.5832 36.04 54.1752 34.924 54.1032 33.7H59.1792C59.2752 34.468 59.6472 35.104 60.2952 35.608C60.9672 36.112 61.7952 36.364 62.7792 36.364C63.7392 36.364 64.4832 36.172 65.0112 35.788C65.5632 35.404 65.8392 34.912 65.8392 34.312C65.8392 33.664 65.5032 33.184 64.8312 32.872C64.1832 32.536 63.1392 32.176 61.6992 31.792C60.2112 31.432 58.9872 31.06 58.0272 30.676C57.0912 30.292 56.2752 29.704 55.5792 28.912C54.9072 28.12 54.5712 27.052 54.5712 25.708C54.5712 24.604 54.8832 23.596 55.5072 22.684C56.1552 21.772 57.0672 21.052 58.2432 20.524C59.4432 19.996 60.8472 19.732 62.4552 19.732C64.8312 19.732 66.7272 20.332 68.1432 21.532C69.5592 22.708 70.3392 24.304 70.4832 26.32H65.6592C65.5872 25.528 65.2512 24.904 64.6512 24.448C64.0752 23.968 63.2952 23.728 62.3112 23.728C61.3992 23.728 60.6912 23.896 60.1872 24.232C59.7072 24.568 59.4672 25.036 59.4672 25.636C59.4672 26.308 59.8032 26.824 60.4752 27.184C61.1472 27.52 62.1912 27.868 63.6072 28.228C65.0472 28.588 66.2352 28.96 67.1712 29.344C68.1072 29.728 68.9112 30.328 69.5832 31.144C70.2792 31.936 70.6392 32.992 70.6632 34.312C70.6632 35.464 70.3392 36.496 69.6912 37.408C69.0672 38.32 68.1552 39.04 66.9552 39.568C65.7792 40.072 64.3992 40.324 62.8152 40.324Z" fill="#2D2D2D"/>
<path d="M103.412 14.728V19.66H96.716V40H90.56V19.66H83.864V14.728H103.412ZM122.234 35.536H112.802L111.29 40H104.846L113.99 14.728H121.118L130.262 40H123.746L122.234 35.536ZM120.65 30.784L117.518 21.532L114.422 30.784H120.65ZM139.201 35.248H147.265V40H133.045V14.728H139.201V35.248ZM164.853 40L156.357 28.84V40H150.201V14.728H156.357V25.816L164.781 14.728H172.017L162.225 27.112L172.377 40H164.853Z" fill="#68B28A"/>
<path d="M175.58 4H81.4201C79.7174 4 78.0845 4.36417 76.8805 5.01239C75.6765 5.66061 75.0001 6.5398 75.0001 7.45652V53.5435C74.9925 54.2025 75.3383 54.8488 75.9959 55.4047C76.6535 55.9605 77.5951 56.4025 78.7077 56.6774C79.5582 56.8887 80.4834 56.9988 81.4201 57C82.9276 56.9993 84.3856 56.7104 85.5343 56.1848L85.5664 56.1676L102.761 48.0534C103.152 47.8763 103.647 47.7803 104.158 47.7826H175.58C177.283 47.7826 178.916 47.4184 180.12 46.7702C181.324 46.122 182 45.2428 182 44.3261V7.45652C182 6.5398 181.324 5.66061 180.12 5.01239C178.916 4.36417 177.283 4 175.58 4ZM177.72 44.3261C177.72 44.6317 177.495 44.9247 177.093 45.1408C176.692 45.3569 176.148 45.4783 175.58 45.4783H104.158C102.631 45.4806 101.155 45.7734 99.9899 46.3049L82.7844 54.4278C82.4719 54.567 82.0924 54.6555 81.69 54.6831C81.2877 54.7106 80.8791 54.676 80.5119 54.5833C80.1447 54.4907 79.8339 54.3437 79.6158 54.1596C79.3977 53.9755 79.2813 53.7618 79.2801 53.5435V7.45652C79.2801 7.15095 79.5056 6.85789 79.9069 6.64181C80.3082 6.42574 80.8526 6.30435 81.4201 6.30435H175.58C176.148 6.30435 176.692 6.42574 177.093 6.64181C177.495 6.85789 177.72 7.15095 177.72 7.45652V44.3261Z" fill="#68B38A"/>
</svg>
