<svg width="15" height="17" viewBox="0 0 15 17" fill="none" xmlns="http://www.w3.org/2000/svg">
<path d="M14.375 2.5H0.625C0.45924 2.5 0.300269 2.56585 0.183058 2.68306C0.0658481 2.80027 0 2.95924 0 3.125C0 3.29076 0.0658481 3.44973 0.183058 3.56694C0.300269 3.68415 0.45924 3.75 0.625 3.75H1.25V15C1.25 15.3315 1.3817 15.6495 1.61612 15.8839C1.85054 16.1183 2.16848 16.25 2.5 16.25H12.5C12.8315 16.25 13.1495 16.1183 13.3839 15.8839C13.6183 15.6495 13.75 15.3315 13.75 15V3.75H14.375C14.5408 3.75 14.6997 3.68415 14.8169 3.56694C14.9342 3.44973 15 3.29076 15 3.125C15 2.95924 14.9342 2.80027 14.8169 2.68306C14.6997 2.56585 14.5408 2.5 14.375 2.5ZM12.5 15H2.5V3.75H12.5V15ZM3.75 0.625C3.75 0.45924 3.81585 0.300268 3.93306 0.183058C4.05027 0.065848 4.20924 0 4.375 0H10.625C10.7908 0 10.9497 0.065848 11.0669 0.183058C11.1842 0.300268 11.25 0.45924 11.25 0.625C11.25 0.79076 11.1842 0.949732 11.0669 1.06694C10.9497 1.18415 10.7908 1.25 10.625 1.25H4.375C4.20924 1.25 4.05027 1.18415 3.93306 1.06694C3.81585 0.949732 3.75 0.79076 3.75 0.625Z" fill="#A1A1A1"/>
</svg>
